<svg width="512" height="512" viewBox="0 0 512 512" role="img" xmlns="http://www.w3.org/2000/svg">
  <title>Gmod Workshop Tool app icon</title>
  <desc>A dark navy rounded square with a blue gear and download arrow</desc>

  <rect width="512" height="512" rx="112" fill="#1A2A4A"/>

  <g transform="translate(256,256)">
    <path fill="#3D8EE8" d="
      M0,-105 L15,-93 L30,-108 L50,-90 L35,-75
      A75,75 0 0,1 75,0
      L93,0 L93,16 L108,32 L90,50 L75,35
      A75,75 0 0,1 0,75
      L0,93 L-16,93 L-32,108 L-50,90 L-35,75
      A75,75 0 0,1 -75,0
      L-93,0 L-93,-16 L-108,-32 L-90,-50 L-75,-35
      A75,75 0 0,1 0,-75
      Z
    "/>
    <circle cx="0" cy="0" r="50" fill="#1A2A4A"/>
    <line x1="0" y1="-24" x2="0" y2="16" stroke="#3D8EE8" stroke-width="14" stroke-linecap="round"/>
    <polyline points="-20,8 0,30 20,8" fill="none" stroke="#3D8EE8" stroke-width="14" stroke-linecap="round" stroke-linejoin="round"/>
  </g>
</svg>